<svg id="Capa_1" data-name="Capa 1" xmlns="http://www.w3.org/2000/svg" xmlns:xlink="http://www.w3.org/1999/xlink" viewBox="0 0 415.61 125.67"><defs><style>.cls-1{font-size:68.47px;fill:#1d1d1b;font-family:RussoOne-Regular, Russo One;}.cls-2{letter-spacing:-0.02em;}.cls-3{fill:none;stroke-width:4px;stroke:url(#Degradado_sin_nombre_55);}.cls-3,.cls-4{stroke-miterlimit:10;}.cls-4,.cls-5{fill-rule:evenodd;}.cls-4{fill:url(#Degradado_sin_nombre_53);stroke:url(#Degradado_sin_nombre_53-2);}.cls-5{fill:#fff;}.cls-6{fill:#f6f6f6;}</style><linearGradient id="Degradado_sin_nombre_55" y1="62.83" x2="130.75" y2="62.83" gradientUnits="userSpaceOnUse"><stop offset="0" stop-color="#dca33f"/><stop offset="1" stop-color="#d4a961"/></linearGradient><linearGradient id="Degradado_sin_nombre_53" x1="10.77" y1="63.68" x2="119.98" y2="63.68" xlink:href="#Degradado_sin_nombre_55"/><linearGradient id="Degradado_sin_nombre_53-2" x1="10.27" y1="63.64" x2="120.82" y2="63.64" xlink:href="#Degradado_sin_nombre_55"/></defs><text class="cls-1" transform="translate(148.24 87.31)">Pismi<tspan class="cls-2" x="195.49" y="0">r</tspan><tspan x="225.62" y="0">e</tspan></text><ellipse class="cls-3" cx="65.37" cy="62.83" rx="63.37" ry="60.83"/><path class="cls-4" d="M69.06,50.65l10.37-11,30.67,7.41L76.93,35.42,63.63,49.58c-.77-.12-1.54-.23-2.29-.32L76.05,33.68l40.39,9.76L72.75,28.1,55.27,46.71l-.56.32a1.13,1.13,0,0,0-.28-.25c-.11,0-.4.26-.46.33l0,0,.2-.2-.34-.11a21.36,21.36,0,0,0,2.34-5.16,10.8,10.8,0,0,0-.71-8.37c-2.11-3.88-7.39-5.81-11.18-3.86a2.75,2.75,0,0,1-3,0,12.76,12.76,0,0,0-8.44-.8,18,18,0,0,0-10.58,5.85,10.82,10.82,0,0,0-2.76,8.15c0,.41,0,.62-.51.69A9.66,9.66,0,0,0,11.05,55a10.61,10.61,0,0,0,3.61,5.72c.5.42.59.65.27,1.32a6.71,6.71,0,0,0-.18,5.36,8.88,8.88,0,0,0,6.41,6c3,.73,5.38-.51,7.43-2.59.35-.36.64-.78,1-1.17.12-.12.17-.41.44-.24l.3.17c.07-.11.16-.23.21-.3l.09-.19.32-.61c-.52,8.2,2.23,17.24,7.59,22.78C52,105.2,87,102,120,73.27,101,61.54,83.45,53.94,69.06,50.65Z"/><path class="cls-5" d="M19.43,67.72a2.91,2.91,0,0,0,3-2.38,16.2,16.2,0,0,0,.31-6.54,33,33,0,0,0-.68-4,8.64,8.64,0,0,0,1.56.86,1.19,1.19,0,0,0,1.66-.91A3.08,3.08,0,0,0,24.58,52c-.69-1-.65-1.13.53-1.4A13.13,13.13,0,0,0,30,47.87c3.32-2.53,3.85-5.81,2.87-9.58-.12-.46-.25-.92-.41-1.54a37.34,37.34,0,0,1,4.94,4.1A4.63,4.63,0,0,0,39.54,42c1.07.28,1.87-.45,3-.66A10.81,10.81,0,0,1,38.62,38c.38-.12.52.13.68.28A7.29,7.29,0,0,0,46,40.11a4.72,4.72,0,0,0,3.17-2.66A9.73,9.73,0,0,0,50,34.6c0-.26.09-.51.14-.84.55,1.11.35,3.55-.41,5.45,1.34-.5,2.23-1.9,2.47-4,3,2.66,2.47,5.81,1.5,9.18,2.31-4,2.59-8.69-.19-11.83-2.15-2.43-6-3.36-8.65-2.06l-.32.16c-.88.52-.88.52-.39,1.39.95,1.66,1.16,2.43.95,3.53-.14.06-.17-.06-.19-.14a7.47,7.47,0,0,0-7-5.78,16.56,16.56,0,0,0-14.61,5.68,9.11,9.11,0,0,0-2.19,8.31,10.66,10.66,0,0,0,1.25,2.85c.08.14.25.3.09.45s-.34-.1-.44-.21a6.59,6.59,0,0,1-1.2-1.71.91.91,0,0,0-1.08-.59,7.79,7.79,0,0,0-6.77,5c-1.87,4.21-.16,8.32,3.39,11a.59.59,0,0,0,.71,0,5.9,5.9,0,0,1,2.73-.58,5,5,0,0,1-1.59.92,3.91,3.91,0,0,0-2.33,3c-1,4.39,3.52,9.18,8,8.48a2.55,2.55,0,0,0,.75-.25C21.72,71.9,20.17,70.36,19.43,67.72Z"/><path class="cls-5" d="M52.21,46.9l-4.27-5.63a.59.59,0,0,0-.68-.23C35.7,43,26.93,51.24,25.14,63.37a.63.63,0,0,0,.21.69c1.36,1.16,2.69,2.34,4.09,3.56.2-1.06.35-2.07.58-3.07a7.32,7.32,0,0,1,1.34-2.71,17.89,17.89,0,0,0-1.06,5.21c.47-1.48.92-3,1.53-4.39A24.85,24.85,0,0,1,44.35,49.73,41,41,0,0,1,52.21,46.9Z"/><path class="cls-6" d="M93,72.6C75.9,60.23,62.09,55.75,57.9,60.64,55,64.06,56.58,72.2,60.59,76.57c6.17,6.72,20.28,7,32.39-4"/></svg>